<svg version="1.1" id="Layer_1" xmlns="http://www.w3.org/2000/svg" xmlns:xlink="http://www.w3.org/1999/xlink" x="0px" y="0px"
	 width="100%" viewBox="0 0 1024 1024" enable-background="new 0 0 1024 1024" xml:space="preserve">
<path fill="#f2f3f1" opacity="1.000000" stroke="none" 
	d="
M382.538666,212.539612 
	C392.402893,203.581238 400.211792,193.007278 410.972015,185.460739 
	C421.838806,177.839462 433.924377,173.937347 447.031189,173.910507 
	C521.674133,173.757645 596.317444,173.778198 670.960632,173.832275 
	C684.967407,173.842422 694.805115,183.286514 694.308105,195.698318 
	C694.109985,200.646255 691.946045,204.666641 688.557556,208.073166 
	C675.867981,220.830093 663.146057,233.554901 650.412659,246.268021 
	C645.895874,250.777573 640.327576,252.335449 634.038635,252.330414 
	C576.223450,252.284149 518.407104,252.512589 460.593781,252.185654 
	C446.182709,252.104156 434.496460,256.250885 424.526550,266.934967 
	C411.008270,281.421631 396.683624,295.154419 382.749786,309.255005 
	C369.442627,322.721313 369.536346,338.504608 382.899200,351.884796 
	C399.381836,368.388794 415.834381,384.922852 432.324463,401.419403 
	C439.104523,408.202148 447.202850,411.773987 456.925690,411.759399 
	C498.079376,411.697723 539.233215,411.717163 580.387024,411.750153 
	C588.411682,411.756561 592.453430,415.838440 591.167908,422.400238 
	C590.700562,424.785706 589.324585,426.626984 587.642700,428.308502 
	C574.446777,441.501160 561.258118,454.701019 548.082581,467.914032 
	C543.547546,472.462006 537.817627,474.105957 531.695923,474.123657 
	C497.373627,474.223083 463.048889,474.381927 428.729279,474.062012 
	C414.911438,473.933197 402.913086,468.788330 393.009125,458.683472 
	C363.505432,428.581329 333.806244,398.670746 304.177582,368.691162 
	C283.211334,347.476654 284.127106,311.214447 306.083282,289.260315 
	C331.530457,263.815521 356.890320,238.283371 382.538666,212.539612 
z"/>
<path fill="#f2f3f1" opacity="1.000000" stroke="none" 
	d="
M603.000000,346.277466 
	C583.835144,346.280731 565.170349,346.269684 546.505493,346.294952 
	C539.700806,346.304169 539.190552,346.845154 538.978760,353.686066 
	C538.705017,362.526703 534.350220,367.002838 525.689575,367.048767 
	C510.858185,367.127411 496.025879,367.128571 481.194397,367.066620 
	C473.775146,367.035645 472.784760,365.935181 472.795349,358.710602 
	C472.821259,341.045837 472.816437,323.381012 472.853699,305.716309 
	C472.867004,299.412872 474.070953,298.097382 480.453186,298.059479 
	C495.451172,297.970459 510.450409,297.954559 525.448242,298.050232 
	C534.627258,298.108826 538.832581,302.481476 538.915344,311.648468 
	C538.979736,318.777710 538.979736,318.789551 546.213867,318.792969 
	C579.377258,318.808563 612.540649,318.821259 645.704041,318.826355 
	C663.605286,318.829071 678.834656,325.173676 691.379395,337.967163 
	C701.293457,348.077698 711.226562,358.169739 721.173340,368.248077 
	C737.815002,385.109894 740.660950,405.068939 733.931702,426.903870 
	C731.354858,435.265320 726.440186,442.357971 720.174438,448.646088 
	C679.600586,489.365448 639.146851,530.204712 598.673340,571.023987 
	C586.311157,583.491760 571.139709,589.977600 553.840759,590.036072 
	C483.182129,590.275024 412.521881,590.098999 341.862366,589.970947 
	C328.680328,589.947083 320.849854,581.555359 322.691162,570.057922 
	C323.299530,566.259155 325.266205,563.245850 327.906433,560.601074 
	C340.267822,548.218567 352.675354,535.881897 364.996368,523.459412 
	C370.840363,517.567322 378.128998,515.944519 386.016022,515.940735 
	C438.177338,515.915588 490.339844,515.712097 542.499207,516.025208 
	C556.286743,516.107910 567.091919,511.404938 576.720276,501.653656 
	C605.871704,472.129944 635.535156,443.112579 664.799133,413.698914 
	C677.250061,401.184326 681.481689,386.225830 675.269348,369.273468 
	C670.175781,355.373718 656.822266,346.394165 641.996460,346.299225 
	C629.164795,346.217041 616.332214,346.279205 603.000000,346.277466 
z"/>
<path fill="#f2f3f1" opacity="1.000000" stroke="none" 
	d="
M161.722794,658.527832 
	C166.197510,655.963989 170.678680,654.935364 175.447159,654.939087 
	C195.777664,654.955017 216.109375,655.057373 236.437897,654.853699 
	C241.348480,654.804504 243.259033,656.274719 243.158951,661.396179 
	C242.856613,676.869141 244.488068,674.093750 230.530457,674.216492 
	C213.200912,674.368835 195.868866,674.217468 178.537933,674.236755 
	C171.920380,674.244080 170.298920,675.914490 170.251450,682.509155 
	C170.202652,689.289429 171.656235,690.913574 178.304382,690.942993 
	C192.635452,691.006409 206.968262,690.840210 221.298004,690.991760 
	C234.587387,691.132324 242.974503,696.519287 245.432877,707.667603 
	C247.709335,717.990967 248.279266,728.593567 241.069702,737.729065 
	C236.387756,743.661804 229.876846,746.038818 222.577072,746.080200 
	C201.080688,746.202148 179.582977,746.080994 158.086487,746.192383 
	C154.261642,746.212158 152.667358,744.893738 152.763962,740.958069 
	C153.179092,724.043701 150.399719,726.995300 166.538864,726.801880 
	C184.033905,726.592163 201.533539,726.781860 219.031097,726.754700 
	C225.447525,726.744690 227.008499,725.142761 227.058868,718.814209 
	C227.113342,711.969543 225.611130,710.261536 219.147278,710.237427 
	C205.649323,710.187134 192.151031,710.221924 178.652878,710.228638 
	C159.103729,710.238403 150.846893,701.848083 150.775375,682.126160 
	C150.740952,672.637634 152.930038,664.283325 161.722794,658.527832 
z"/>
<path fill="#f2f3f1" opacity="1.000000" stroke="none" 
	d="
M438.603424,723.236206 
	C438.565582,729.805664 438.419220,735.963684 438.426117,742.121582 
	C438.429138,744.844482 437.274750,746.121094 434.565491,746.111084 
	C431.233307,746.098694 427.888153,745.972839 424.571686,746.213501 
	C420.109009,746.537476 418.830933,744.469604 418.850983,740.276367 
	C418.966553,716.115356 418.842743,691.953186 418.949066,667.792053 
	C418.968597,663.354431 417.400085,658.043274 423.180328,655.597595 
	C428.809326,653.216125 436.434174,655.230530 440.922180,659.809082 
	C458.417175,677.657288 475.965668,695.453064 493.510742,713.252014 
	C493.829834,713.575745 494.353241,713.697998 494.841644,713.944702 
	C496.346375,712.336426 495.702820,710.416443 495.708282,708.690430 
	C495.758820,692.693970 495.846252,676.695862 495.652222,660.701538 
	C495.600922,656.475403 496.725433,654.794678 501.254242,654.818054 
	C515.280090,654.890442 515.296143,654.724243 515.301025,668.662170 
	C515.308777,690.824219 515.303772,712.986206 515.279541,735.148254 
	C515.275208,739.099548 516.126709,743.966858 511.182129,745.324951 
	C505.815735,746.798950 499.941040,747.859802 495.215179,743.161804 
	C486.943604,734.938904 478.725464,726.662292 470.500488,718.392639 
	C461.217743,709.059448 451.957764,699.703552 442.670319,690.375061 
	C441.752380,689.453064 440.712067,688.652893 438.557220,686.775757 
	C438.557220,699.585754 438.557220,711.205200 438.603424,723.236206 
z"/>
<path fill="#f2f3f1" opacity="1.000000" stroke="none" 
	d="
M875.250366,703.000000 
	C875.249634,713.998901 875.260925,724.497803 875.240967,734.996704 
	C875.233337,738.973511 875.797302,743.230896 871.198242,745.400452 
	C866.950684,747.404175 858.499451,746.190552 855.228088,743.000305 
	C850.098328,737.997803 845.072144,732.888733 840.019897,727.807068 
	C827.800964,715.516602 815.597900,703.210327 803.370422,690.928406 
	C802.222107,689.774963 800.945862,688.748718 799.732849,687.666870 
	C797.503662,689.228821 798.393921,691.232117 798.388428,692.883179 
	C798.334595,708.881104 798.286316,724.880615 798.483398,740.876709 
	C798.530151,744.678162 797.557129,746.299683 793.490295,746.208130 
	C776.371521,745.822388 779.011414,748.594116 778.898621,731.752014 
	C778.751343,709.755310 778.830322,687.756958 778.828369,665.759338 
	C778.828064,661.778198 778.271667,657.528015 783.070984,655.528503 
	C787.757263,653.575989 796.352295,655.012512 799.477783,658.192871 
	C816.879944,675.900818 834.292969,693.598083 851.717346,711.284241 
	C852.628479,712.209106 853.675964,712.999695 854.721802,713.906372 
	C856.308655,712.123291 855.657593,710.210022 855.663391,708.485413 
	C855.716736,692.653931 855.818176,676.820374 855.598816,660.991699 
	C855.537354,656.554810 856.679565,654.785217 861.448303,654.836914 
	C875.228760,654.986389 875.233643,654.801331 875.241821,668.503296 
	C875.248535,679.835510 875.247437,691.167786 875.250366,703.000000 
z"/>
<path fill="#f2f3f1" opacity="1.000000" stroke="none" 
	d="
M743.348389,658.048584 
	C743.354370,668.357483 743.390198,678.174988 743.353088,687.992188 
	C743.328125,694.608765 741.109131,697.096069 734.403381,697.148132 
	C730.377197,697.179382 729.303406,698.780823 729.333496,702.539612 
	C729.461243,718.512390 729.258606,734.488159 729.430115,750.460144 
	C729.473999,754.552612 728.159851,756.104980 724.017212,756.026489 
	C708.766602,755.737549 710.953003,757.783813 710.851196,743.202881 
	C710.757080,729.725342 710.718018,716.245300 710.886536,702.769348 
	C710.935608,698.846252 709.977112,697.097412 705.629944,697.150940 
	C699.602417,697.225281 696.812134,694.167175 696.769592,688.196167 
	C696.686523,676.549011 696.807312,664.900269 696.711060,653.253296 
	C696.672302,648.565918 698.842712,646.680969 703.416565,646.718689 
	C714.065063,646.806580 724.715027,646.705688 735.364441,646.694641 
	C742.846130,646.686890 743.339783,647.183594 743.344360,654.561890 
	C743.344971,655.560303 743.346191,656.558655 743.348389,658.048584 
z"/>
<path fill="#f2f3f1" opacity="1.000000" stroke="none" 
	d="
M614.423096,708.577515 
	C627.372864,720.701294 640.070923,732.577515 653.413696,745.056702 
	C647.993835,746.877258 643.480957,745.617249 639.176453,746.261719 
	C629.230042,747.750732 621.873352,743.998108 615.017761,736.830688 
	C606.054199,727.459473 596.130859,719.000977 586.528748,710.250305 
	C584.630493,708.520325 584.150574,706.596802 583.823975,704.152710 
	C582.690308,695.667358 585.396423,689.404724 592.225586,683.883423 
	C602.442566,675.623108 611.864258,666.380798 621.669312,657.606689 
	C622.762268,656.628662 624.133911,655.313049 625.401978,655.284180 
	C634.284668,655.081970 643.174133,655.177002 652.668213,656.352051 
	C636.972534,670.518860 621.276855,684.685669 605.498169,698.927429 
	C607.712280,703.164673 611.519775,705.224182 614.423096,708.577515 
z"/>
<path fill="#f2f3f1" opacity="1.000000" stroke="none" 
	d="
M365.026123,680.025757 
	C357.911896,687.772949 351.127106,695.343384 344.122650,702.704712 
	C340.729889,706.270264 338.950439,710.027527 339.181122,715.149780 
	C339.570526,723.796997 339.163513,732.476990 339.327271,741.138733 
	C339.396423,744.797974 338.032593,746.214661 334.376434,746.162415 
	C316.412994,745.905457 320.107788,748.563049 319.712341,731.992432 
	C319.565308,725.830383 319.686066,719.662048 319.675751,713.496582 
	C319.673798,712.330688 320.089447,710.839539 319.531494,710.051086 
	C315.404846,704.219910 319.981323,701.122009 323.224915,697.573303 
	C334.802002,684.906982 346.465546,672.317993 357.897675,659.522156 
	C360.935089,656.122375 364.176758,654.565369 368.755951,654.829895 
	C374.513306,655.162476 380.304443,654.910034 386.081024,654.910034 
	C386.371613,655.390381 386.662231,655.870789 386.952820,656.351135 
	C379.723633,664.155090 372.494446,671.959045 365.026123,680.025757 
z"/>
<path fill="#f2f3f1" opacity="1.000000" stroke="none" 
	d="
M470.005127,331.000427 
	C469.994995,338.982178 469.908020,346.465149 470.014465,353.945404 
	C470.068726,357.761932 468.520721,359.244049 464.642029,359.162842 
	C455.168884,358.964508 445.688263,358.991180 436.212646,359.099609 
	C431.579437,359.152618 429.633942,357.220306 429.686829,352.516510 
	C429.838226,339.050659 429.800110,325.581543 429.698151,312.114746 
	C429.668518,308.203339 431.205933,306.120483 435.191833,306.108490 
	C445.167267,306.078491 455.142761,306.070404 465.118225,306.048981 
	C467.827881,306.043182 469.239807,307.004181 469.561005,310.073425 
	C470.274078,316.887451 469.839142,323.694336 470.005127,331.000427 
M456.377899,346.694244 
	C456.379761,344.149933 458.489471,340.901062 454.541595,339.611206 
	C452.980804,339.101257 450.556519,338.690796 449.727325,340.901917 
	C448.922394,343.048340 448.488403,345.747772 450.035583,347.582916 
	C451.702393,349.559937 453.986664,348.337067 456.377899,346.694244 
M449.347076,319.851471 
	C449.648651,321.931946 448.057404,324.856659 451.545288,325.548370 
	C453.275146,325.891388 455.586365,326.146545 456.291748,323.985413 
	C456.978302,321.881989 457.760620,319.052979 455.392212,317.643494 
	C453.483948,316.507874 450.861511,316.155365 449.347076,319.851471 
z"/>
<path fill="#f2f3f1" opacity="1.000000" stroke="none" 
	d="
M577.223755,693.000000 
	C577.228699,709.161682 577.121460,724.824768 577.308350,740.484253 
	C577.360352,744.841736 575.844482,746.257935 571.501770,746.247009 
	C557.659180,746.212097 557.633728,746.358276 557.621887,732.719666 
	C557.601013,708.727173 557.724182,684.733704 557.518616,660.742920 
	C557.478455,656.057373 559.076538,654.760925 563.570435,654.788086 
	C577.251282,654.871033 577.241943,654.715637 577.212708,668.507446 
	C577.195740,676.504883 577.218018,684.502502 577.223755,693.000000 
z"/>
<path fill="#f2f3f1" opacity="1.000000" stroke="none" 
	d="
M708.333801,604.281921 
	C717.557678,604.263611 726.345886,604.329529 735.133667,604.291260 
	C738.092896,604.278442 739.301514,605.577698 739.284241,608.512451 
	C739.222717,618.982300 739.229248,629.453064 739.296692,639.922852 
	C739.315735,642.877075 738.026062,644.148682 735.109802,644.131958 
	C725.304688,644.075684 715.498779,644.022339 705.694336,644.104980 
	C701.961853,644.136414 700.766418,642.314148 700.801697,638.863037 
	C700.893372,629.889465 700.823120,620.914368 700.851990,611.939941 
	C700.874573,604.927490 700.897583,604.927551 708.333801,604.281921 
M712.113525,621.557495 
	C706.978577,621.218628 708.109314,624.928284 708.419434,627.683899 
	C708.715149,630.310974 711.067383,629.924133 712.749390,629.462769 
	C715.648376,628.667603 715.571045,624.323608 712.113525,621.557495 
M731.841064,627.162781 
	C731.957764,624.843445 732.303833,622.386108 728.995850,621.953613 
	C727.710999,621.785522 726.090393,621.406555 725.629456,623.018616 
	C725.057556,625.019043 724.427002,627.557556 726.243469,628.982483 
	C727.933105,630.308044 730.258667,630.322266 731.841064,627.162781 
z"/>
<path fill="#f2f3f1" opacity="1.000000" stroke="none" 
	d="
M277.412476,654.968079 
	C291.415161,652.396790 301.475037,657.467224 309.261139,668.589233 
	C312.477478,673.183655 316.760284,677.057739 320.734955,681.084839 
	C323.027161,683.407227 323.539642,685.317932 320.912598,687.745911 
	C318.226166,690.228821 315.790497,692.982483 313.234650,695.607483 
	C311.966888,696.909607 310.551086,697.836975 308.976257,696.153687 
	C296.720703,683.053772 284.494476,669.926514 272.374054,656.930908 
	C273.561737,654.364380 275.446350,655.204529 277.412476,654.968079 
z"/>
<path fill="#f2f3f1" opacity="1.000000" stroke="none" 
	d="
M798.485352,788.869812 
	C801.363953,787.704956 802.452026,789.206604 803.154724,791.322571 
	C803.718140,793.019409 804.271057,794.719849 804.976990,796.870728 
	C806.926086,795.086182 806.847534,792.972290 807.524292,791.242065 
	C808.105103,789.757263 808.729736,788.434814 810.492798,788.313049 
	C812.545105,788.171326 813.435120,789.605347 813.950562,791.276062 
	C814.578857,793.312683 815.079102,795.388794 815.961609,798.658997 
	C817.073120,795.148010 817.813660,792.723450 818.611389,790.317871 
	C819.176025,788.615417 820.483215,787.948792 822.130798,788.405945 
	C823.892517,788.894653 823.641724,790.422241 823.294495,791.708008 
	C821.953735,796.671875 820.552551,801.619873 819.120239,806.558228 
	C818.712402,807.964294 817.725342,808.796631 816.178284,808.750488 
	C814.654907,808.704956 813.715393,807.865295 813.283813,806.454407 
	C812.573059,804.130798 811.899841,801.795715 810.839783,798.210571 
	C809.654358,801.839233 808.879395,804.290100 808.048218,806.721741 
	C807.640198,807.915649 806.766907,808.684448 805.491028,808.786682 
	C804.007019,808.905579 802.735840,808.240479 802.374268,806.830139 
	C800.866943,800.951416 797.922058,795.405823 798.485352,788.869812 
z"/>
<path fill="#f2f3f1" opacity="1.000000" stroke="none" 
	d="
M248.831451,796.071411 
	C249.346756,793.038086 247.354446,789.174500 251.118835,788.303955 
	C255.218536,787.355896 259.763062,786.864624 263.483246,789.971069 
	C265.405304,791.575928 266.614990,803.626099 265.223175,805.698242 
	C263.135956,808.805725 252.752991,810.477417 249.992264,808.166687 
	C248.815063,807.181274 248.872757,805.826050 248.852722,804.513550 
	C248.812195,801.859863 248.834396,799.205200 248.831451,796.071411 
M256.641144,800.397217 
	C255.106354,800.556396 253.629349,801.425903 254.859924,802.822327 
	C256.446228,804.622314 258.598846,804.259949 260.375610,802.421143 
	C259.966156,800.600830 258.717865,800.399658 256.641144,800.397217 
M254.581360,793.835205 
	C255.833420,797.038452 257.512970,795.536072 259.590851,794.396667 
	C258.094299,792.328369 256.660339,791.995911 254.581360,793.835205 
z"/>
<path fill="#f2f3f1" opacity="1.000000" stroke="none" 
	d="
M630.133423,804.579224 
	C630.047180,806.771179 629.789307,808.479492 627.698120,808.847229 
	C625.828186,809.176025 624.550964,808.094910 623.556458,806.637024 
	C621.878601,804.177307 620.207703,801.712769 617.819885,798.199890 
	C617.600952,801.654968 617.459534,804.001099 617.300842,806.346130 
	C617.212036,807.658691 616.593445,808.598267 615.218201,808.721191 
	C613.681641,808.858704 612.398254,808.085266 612.360474,806.583069 
	C612.226868,801.270325 612.280273,795.951233 612.358826,790.635925 
	C612.377747,789.355713 613.246704,788.484436 614.546448,788.266052 
	C616.195496,787.989075 617.493652,788.689453 618.419678,790.007690 
	C620.210632,792.556885 621.944336,795.146301 624.794739,797.553833 
	C624.794739,795.488647 624.780762,793.423340 624.799133,791.358337 
	C624.813721,789.716980 625.254944,788.291077 627.216248,788.239746 
	C629.106140,788.190308 629.887451,789.509094 629.939392,791.150269 
	C630.076172,795.474060 630.083008,799.801941 630.133423,804.579224 
z"/>
<path fill="#f2f3f1" opacity="1.000000" stroke="none" 
	d="
M348.233093,805.732056 
	C347.970856,807.917786 347.008179,808.908752 345.175446,808.606506 
	C343.267029,808.291748 343.021240,806.696594 342.999451,805.165771 
	C342.935425,800.668396 342.928070,796.169617 342.959778,791.671814 
	C342.970520,790.149780 343.140656,788.580444 344.989319,788.093933 
	C346.607056,787.668091 347.986664,788.224854 348.974274,789.517151 
	C350.968903,792.127075 352.888428,794.794434 355.480408,798.307556 
	C355.652222,795.177795 355.768188,793.095703 355.880310,791.013489 
	C355.972717,789.296875 356.696716,788.079895 358.567688,788.094788 
	C360.130768,788.107239 361.091797,789.070374 361.107330,790.611511 
	C361.159271,795.772766 361.136017,800.935181 361.083191,806.096619 
	C361.070099,807.376831 360.380676,808.303833 359.073914,808.626038 
	C357.401306,809.038513 356.170044,808.348022 355.195221,807.027771 
	C353.266571,804.415588 351.327576,801.811035 349.180756,798.917480 
	C347.884125,801.374207 348.518951,803.402893 348.233093,805.732056 
z"/>
<path fill="#f2f3f1" opacity="1.000000" stroke="none" 
	d="
M521.141907,788.707764 
	C524.731262,787.687134 525.862427,790.214661 527.306030,792.182495 
	C528.562012,793.894470 529.739319,795.664246 531.626953,798.380798 
	C531.826416,795.593262 531.935608,793.873352 532.076111,792.155884 
	C532.229980,790.274231 532.411560,788.265381 534.980957,788.386414 
	C537.317627,788.496582 537.266357,790.409973 537.279480,792.087402 
	C537.313293,796.408569 537.318298,800.730042 537.297424,805.051270 
	C537.290222,806.546448 537.366455,808.212463 535.446533,808.670044 
	C533.605103,809.108887 532.258362,808.241760 531.239685,806.717224 
	C529.594299,804.254761 527.907715,801.819763 525.532349,798.338074 
	C525.282288,801.697388 525.162537,803.917297 524.936523,806.126282 
	C524.784241,807.615295 523.999268,808.643066 522.365356,808.579773 
	C521.081665,808.530029 519.963196,807.882751 519.973999,806.522766 
	C520.020752,800.632935 518.690063,794.671936 521.141907,788.707764 
z"/>
<path fill="#f2f3f1" opacity="1.000000" stroke="none" 
	d="
M386.249969,808.693665 
	C382.640839,808.516113 381.845520,805.623352 380.237274,803.611023 
	C379.126221,802.220825 377.983917,800.855591 376.286926,798.785522 
	C375.910278,801.777344 375.610199,803.862488 375.397156,805.956482 
	C375.250916,807.393921 374.918671,808.661011 373.173431,808.678589 
	C371.542786,808.695007 370.751678,807.681763 370.742096,806.138977 
	C370.710144,800.985657 370.717133,795.831970 370.747101,790.678650 
	C370.754608,789.390442 371.369324,788.453796 372.703461,788.150574 
	C374.365662,787.772705 375.651276,788.441284 376.609863,789.735291 
	C378.472656,792.249939 380.280975,794.804932 382.279541,797.575684 
	C383.728058,795.036072 383.445068,792.567078 383.598785,790.175232 
	C383.668793,789.085571 384.107788,788.260925 385.304016,788.068298 
	C386.590607,787.861023 388.153748,788.279297 388.120697,789.447998 
	C387.939453,795.857361 390.206024,802.484436 386.249969,808.693665 
z"/>
<path fill="#f2f3f1" opacity="1.000000" stroke="none" 
	d="
M313.758728,796.403198 
	C316.152985,789.881714 319.964233,787.127930 325.249939,787.716370 
	C330.346710,788.283691 334.035004,792.107605 334.468506,797.273926 
	C334.932312,802.801453 332.391327,806.985229 327.554474,808.657715 
	C319.989624,811.273560 313.705475,805.900330 313.758728,796.403198 
M322.092468,803.558228 
	C327.202759,803.990234 330.296051,801.208496 329.228394,797.073425 
	C328.647827,794.824768 327.212646,793.239868 324.898438,792.757751 
	C322.682587,792.296265 320.843750,793.336609 319.937347,795.221924 
	C318.554169,798.098877 318.526215,800.991272 322.092468,803.558228 
z"/>
<path fill="#f2f3f1" opacity="1.000000" stroke="none" 
	d="
M705.176270,804.888794 
	C704.399292,803.560242 703.769348,802.595703 702.407776,802.643677 
	C702.113831,802.876831 701.777649,803.026978 701.622253,803.285706 
	C700.559692,805.054077 702.090332,808.747925 698.487305,808.511047 
	C694.697205,808.261902 696.011047,804.856567 695.858704,802.609009 
	C695.679688,799.968994 695.727478,797.299683 695.884460,794.655334 
	C696.013794,792.475403 694.896606,789.421997 697.826904,788.583008 
	C701.818420,787.440247 706.061890,787.109314 709.763245,789.775879 
	C712.192688,791.526062 713.223694,794.439453 712.013550,796.840942 
	C710.089905,800.658325 709.725952,804.081055 712.367859,807.683472 
	C708.416565,810.029785 706.838989,807.742615 705.176270,804.888794 
M701.493835,794.649109 
	C701.256409,797.302795 702.726257,797.817871 704.872437,797.200256 
	C706.071411,796.855225 707.097656,795.833191 706.422791,794.619324 
	C705.296021,792.592896 703.513733,792.963867 701.493835,794.649109 
z"/>
<path fill="#f2f3f1" opacity="1.000000" stroke="none" 
	d="
M397.874634,790.372925 
	C400.129639,788.132080 409.298126,787.009705 411.555603,788.220398 
	C412.551819,788.754700 413.006927,789.534668 412.866150,790.648132 
	C412.686554,792.068970 411.624481,792.450745 410.437866,792.760193 
	C408.289795,793.320374 405.794708,792.300476 403.627594,794.099243 
	C405.057648,796.581360 407.277435,795.476074 409.029572,795.718384 
	C410.766724,795.958618 411.920197,796.597168 411.796814,798.497864 
	C411.682098,800.265320 410.382538,800.491699 408.933777,800.524841 
	C407.029144,800.568481 404.891327,800.019165 403.531830,802.493652 
	C405.371826,804.597351 407.846222,803.533936 409.961884,803.820251 
	C411.731964,804.059875 413.402740,804.315552 413.297577,806.605652 
	C413.205231,808.615906 411.612061,808.812683 410.067932,808.961182 
	C409.902313,808.977112 409.734802,808.973022 409.569183,808.989014 
	C398.233032,810.083313 397.726624,809.631470 397.730774,798.325623 
	C397.731689,795.827454 397.777069,793.329224 397.874634,790.372925 
z"/>
<path fill="#f2f3f1" opacity="1.000000" stroke="none" 
	d="
M777.501221,803.201599 
	C777.559692,799.286438 777.707275,795.800964 777.581665,792.325256 
	C777.473938,789.344421 778.822754,788.030823 781.673401,788.035522 
	C784.157593,788.039612 786.647522,787.989319 789.123840,788.142944 
	C790.731689,788.242676 792.084045,788.977112 791.885132,790.924377 
	C791.716858,792.571960 790.433838,792.917114 789.022583,793.100403 
	C787.302307,793.323792 785.362000,792.524475 783.732300,794.239502 
	C784.492676,796.423950 786.425354,795.575928 787.847656,795.779236 
	C789.416931,796.003601 790.937134,796.241272 790.949646,798.232117 
	C790.962097,800.203918 789.390930,800.489502 787.884033,800.817383 
	C786.503723,801.117676 784.832336,800.607849 783.690125,802.399597 
	C784.886963,804.604187 787.115662,803.559326 788.841248,803.868591 
	C790.351257,804.139099 791.960754,804.225525 792.109741,806.196472 
	C792.288086,808.555115 790.467651,808.812012 788.787476,808.920959 
	C786.639709,809.060181 784.474548,808.925415 782.325806,809.055542 
	C778.363281,809.295471 776.829834,807.466064 777.501221,803.201599 
z"/>
<path fill="#f2f3f1" opacity="1.000000" stroke="none" 
	d="
M731.594238,800.415405 
	C729.419128,801.229065 727.281006,800.114502 725.300537,801.513489 
	C726.197083,804.712891 728.730469,803.533752 730.574646,803.768433 
	C732.337646,803.992859 734.645203,803.518311 734.853943,806.046509 
	C735.093140,808.944641 732.630859,808.847534 730.670959,809.017517 
	C720.251770,809.920837 719.832886,809.524658 719.778198,798.955139 
	C719.776489,798.623291 719.771973,798.291504 719.770447,797.959656 
	C719.723450,787.633057 720.493042,786.938416 730.723083,787.968994 
	C732.423035,788.140198 734.199463,788.203430 734.304138,790.498413 
	C734.414062,792.907715 732.610413,792.896484 730.909241,793.097290 
	C729.205994,793.298401 727.237488,792.485718 725.717896,794.367981 
	C726.822876,796.491760 728.896912,795.517761 730.472107,795.916016 
	C733.230164,796.613464 734.364929,797.842896 731.594238,800.415405 
z"/>
<path fill="#f2f3f1" opacity="1.000000" stroke="none" 
	d="
M605.451172,807.634277 
	C603.479919,809.474365 601.932861,808.794067 600.530334,807.318909 
	C597.435669,804.064209 594.274170,803.934326 591.213623,807.255981 
	C589.920044,808.659973 588.532654,809.394165 586.875183,808.368958 
	C585.086731,807.262939 586.219299,805.686401 586.737305,804.385803 
	C588.515808,799.920227 590.394836,795.494751 592.221741,791.048340 
	C592.893921,789.412109 593.832703,788.137817 595.821106,788.157471 
	C597.547363,788.174500 598.593140,789.146423 599.160095,790.665344 
	C601.240662,796.239685 604.255920,801.452454 605.451172,807.634277 
z"/>
<path fill="#f2f3f1" opacity="1.000000" stroke="none" 
	d="
M223.829468,793.226318 
	C226.939041,787.643921 232.494034,786.099915 237.379669,789.097168 
	C238.507538,789.789062 239.914917,790.504211 239.279373,792.135681 
	C238.637909,793.782166 237.336639,794.159485 235.609421,793.469971 
	C233.713089,792.712891 231.675903,791.304321 229.714981,793.865051 
	C231.095108,796.293396 233.773590,795.836426 235.809341,796.600830 
	C238.579987,797.641174 240.380707,799.226501 240.340576,802.384033 
	C240.301773,805.437988 238.648239,807.359314 235.958313,808.417725 
	C232.504318,809.776733 229.099564,809.442017 225.879517,807.634827 
	C224.608521,806.921448 222.924576,806.183105 223.676590,804.289734 
	C224.441772,802.363464 226.014633,802.249817 227.820419,803.036011 
	C230.169067,804.058594 232.599686,805.459290 235.235703,802.619080 
	C231.515610,799.175903 223.436096,801.514404 223.829468,793.226318 
z"/>
<path fill="#f2f3f1" opacity="1.000000" stroke="none" 
	d="
M560.292114,791.862793 
	C559.290710,793.964233 558.017761,794.436646 556.105225,793.604126 
	C554.476440,792.895142 552.686279,792.064209 550.928162,794.009766 
	C552.193665,796.157227 554.568359,796.058960 556.488342,796.718140 
	C559.444214,797.733032 561.461792,799.364807 561.277283,802.799377 
	C561.099182,806.113464 559.085205,807.879089 556.130188,808.737732 
	C552.748352,809.720337 549.542114,809.136963 546.576904,807.291321 
	C545.564453,806.661316 544.622375,805.793091 545.122437,804.455750 
	C545.672546,802.984436 546.929871,802.575989 548.390564,802.970581 
	C550.562073,803.557312 552.706360,804.796936 555.157715,802.997253 
	C554.417297,800.817383 552.412720,800.805908 550.804749,800.406433 
	C547.165039,799.502441 544.505615,797.614990 545.115479,793.563416 
	C545.734192,789.453125 548.950378,787.818176 552.762573,787.883118 
	C555.694153,787.933044 558.817993,788.249695 560.292114,791.862793 
z"/>
<path fill="#f2f3f1" opacity="1.000000" stroke="none" 
	d="
M207.811234,803.370178 
	C210.997040,800.008423 209.199280,796.157471 209.667435,792.649658 
	C209.920395,790.754333 209.271484,788.175537 212.285782,788.250916 
	C215.087875,788.320984 214.929245,790.774597 214.968948,792.745300 
	C215.022476,795.401794 215.089355,798.074829 214.864716,800.716553 
	C214.418396,805.964661 210.798004,809.174866 205.599915,809.170471 
	C200.403168,809.166077 197.106491,805.946289 196.802460,800.399780 
	C196.657166,797.748840 196.717209,795.083069 196.775101,792.425964 
	C196.813812,790.648987 196.488770,788.359558 199.136444,788.291138 
	C202.004791,788.216980 201.912109,790.638977 202.014771,792.604858 
	C202.135986,794.925842 202.032547,797.258057 202.131485,799.580872 
	C202.280243,803.073120 203.646179,805.044067 207.811234,803.370178 
z"/>
<path fill="#f2f3f1" opacity="1.000000" stroke="none" 
	d="
M685.507690,789.169922 
	C688.580811,791.290222 689.731567,793.844543 688.859924,797.122375 
	C688.007202,800.329163 685.888733,802.214905 682.592590,802.679138 
	C680.174133,803.019775 678.082031,803.544556 677.830505,806.626099 
	C677.708557,808.119507 676.509583,808.898376 674.963928,808.702271 
	C673.306335,808.491943 672.872986,807.220642 672.862732,805.809204 
	C672.827881,801.010376 672.840515,796.211121 672.853455,791.411987 
	C672.859680,789.094421 674.333252,788.235291 676.367249,788.084412 
	C679.341797,787.863831 682.328979,787.651855 685.507690,789.169922 
M681.870178,797.563538 
	C683.767944,796.560730 684.292053,795.123108 682.462341,793.780090 
	C681.273682,792.907593 679.359802,792.699585 678.607483,794.390381 
	C677.612244,796.626953 678.729858,797.824707 681.870178,797.563538 
z"/>
<path fill="#f2f3f1" opacity="1.000000" stroke="none" 
	d="
M426.496063,807.885864 
	C420.671112,803.031982 419.454468,797.509949 422.787689,792.423523 
	C425.661469,788.038147 431.332428,786.303833 435.899658,788.626404 
	C437.664246,789.523804 440.524628,790.341125 439.181976,793.153625 
	C437.967987,795.696533 435.882385,794.333557 434.095490,793.321289 
	C431.645477,791.933289 429.536804,792.777222 427.921387,794.741150 
	C426.161163,796.881042 426.050781,799.299500 427.581390,801.669373 
	C429.084656,803.996948 431.262573,804.277893 433.704529,803.495728 
	C434.329926,803.295410 434.922943,802.968140 435.498260,802.641785 
	C437.286774,801.627380 438.867218,802.031982 439.689789,803.778809 
	C440.528870,805.560730 438.898529,806.467468 437.694733,807.282715 
	C434.251221,809.614929 430.608063,809.851379 426.496063,807.885864 
z"/>
<path fill="#f2f3f1" opacity="1.000000" stroke="none" 
	d="
M295.398926,793.634033 
	C292.745667,796.386292 292.373566,799.280945 294.352966,802.030334 
	C296.251373,804.667297 298.969086,804.284058 301.515930,802.858704 
	C303.271057,801.876343 304.836792,801.943176 305.763397,803.742859 
	C306.685333,805.533325 305.073944,806.418701 303.888306,807.290161 
	C299.677399,810.385315 293.925507,809.726135 290.328339,805.768188 
	C286.759918,801.841675 286.752686,795.109192 290.312592,791.097168 
	C293.587616,787.406128 299.548340,786.529907 303.504425,789.247498 
	C304.829437,790.157715 306.667450,791.156982 305.609680,793.155273 
	C304.616394,795.031677 302.923187,794.658447 301.297546,793.708069 
	C299.499481,792.656860 297.628265,792.063110 295.398926,793.634033 
z"/>
<path fill="#f2f3f1" opacity="1.000000" stroke="none" 
	d="
M740.718567,788.723267 
	C744.036438,787.453857 745.280640,789.332642 746.183655,791.689880 
	C747.065002,793.990417 747.692322,796.409485 749.645142,798.868958 
	C750.806152,796.017883 751.795166,793.598511 752.776550,791.176086 
	C753.595581,789.154480 754.821045,787.405273 757.230042,788.470032 
	C759.482300,789.465393 758.097839,791.315491 757.568359,792.772949 
	C755.922852,797.302551 754.365723,801.875916 752.452332,806.292786 
	C750.964294,809.727722 747.437012,810.046143 746.174072,806.750610 
	C743.947327,800.939819 740.812927,795.366577 740.718567,788.723267 
z"/>
<path fill="#f2f3f1" opacity="1.000000" stroke="none" 
	d="
M453.500153,808.347961 
	C450.924774,804.985901 452.344177,801.396851 452.025879,798.011169 
	C451.799622,795.604980 451.868591,793.328125 448.686859,792.843018 
	C447.171539,792.612061 446.455475,791.493958 446.748596,789.905273 
	C447.004547,788.518005 448.054596,787.970581 449.271515,787.941956 
	C452.918610,787.856079 456.569275,787.836914 460.216766,787.898743 
	C461.619995,787.922546 462.834290,788.481750 463.038574,790.135498 
	C463.239105,791.758850 462.376404,792.809692 460.887939,792.915649 
	C457.264496,793.173523 457.310883,795.640381 457.358582,798.247131 
	C457.404144,800.735107 457.393799,803.225037 457.360626,805.713379 
	C457.329926,808.017456 456.254395,809.103394 453.500153,808.347961 
z"/>
<path fill="#f2f3f1" opacity="1.000000" stroke="none" 
	d="
M579.277710,793.290710 
	C575.599121,796.402710 577.813721,800.287842 577.246826,803.725830 
	C576.914490,805.741516 577.767883,808.625671 574.518311,808.608337 
	C571.352234,808.591309 571.851379,805.814514 571.788574,803.714417 
	C571.723938,801.552856 571.740356,799.388367 571.749146,797.225220 
	C571.756958,795.291870 571.589722,793.526001 569.156372,793.097961 
	C567.687073,792.839478 566.681091,791.998169 566.850281,790.376160 
	C567.056335,788.401855 568.693604,788.139954 570.179321,788.080505 
	C573.167847,787.960938 576.166870,787.961060 579.156128,788.065369 
	C580.473572,788.111267 581.880676,788.414246 582.159607,790.115356 
	C582.476013,792.044861 581.294861,792.802490 579.277710,793.290710 
z"/>
<path fill="#f2f3f1" opacity="1.000000" stroke="none" 
	d="
M642.212036,796.836060 
	C642.026611,794.237366 640.688110,793.352539 638.678589,792.900024 
	C637.441162,792.621521 636.846436,791.542358 637.020569,790.208313 
	C637.204285,788.800903 638.254944,788.187073 639.453308,788.161133 
	C643.088928,788.082458 646.729919,788.099976 650.364502,788.215271 
	C651.543396,788.252686 652.633545,788.823853 652.866577,790.214905 
	C653.099182,791.603455 652.320801,792.738831 651.142517,792.809631 
	C646.843384,793.067932 647.325806,796.075989 647.333557,798.903625 
	C647.339905,801.223083 647.325562,803.542908 647.287537,805.862000 
	C647.260254,807.530823 646.728943,808.897644 644.738647,808.742065 
	C642.933044,808.600830 642.202881,807.355225 642.206238,805.651611 
	C642.211731,802.845581 642.254639,800.039612 642.212036,796.836060 
z"/>
<path fill="#f2f3f1" opacity="1.000000" stroke="none" 
	d="
M506.724579,801.861633 
	C506.721161,798.395630 506.681854,795.407349 506.726776,792.420410 
	C506.753845,790.621521 506.504150,788.433105 509.158936,788.343994 
	C511.691772,788.258789 511.955963,790.263306 511.980774,792.166199 
	C512.034912,796.314941 512.050293,800.465332 511.996887,804.613892 
	C511.973083,806.461731 511.874786,808.582947 509.391693,808.693970 
	C506.780029,808.810791 506.764832,806.713257 506.732727,804.829590 
	C506.718597,803.999939 506.726349,803.169861 506.724579,801.861633 
z"/>
<path fill="#f2f3f1" opacity="1.000000" stroke="none" 
	d="
M766.906128,788.183899 
	C769.207947,788.373962 769.651672,789.701721 769.657227,791.350586 
	C769.673462,796.162415 769.707703,800.974243 769.688110,805.785950 
	C769.682373,807.194336 769.310486,808.486389 767.611145,808.702454 
	C766.327942,808.865662 764.965454,808.413574 764.941345,807.095581 
	C764.835815,801.308044 763.722839,795.521301 764.756104,789.741821 
	C764.862854,789.144775 765.918884,788.717468 766.906128,788.183899 
z"/>
<path fill="#f2f3f1" opacity="1.000000" stroke="none" 
	d="
M473.578308,807.415894 
	C471.491547,809.608093 469.739929,809.307495 468.684326,807.014954 
	C467.844940,805.192078 468.839813,803.547180 470.755615,803.360413 
	C473.220703,803.120056 474.347046,804.575439 473.578308,807.415894 
z"/>
<path fill="#f2f3f1" opacity="1.000000" stroke="none" 
	d="
M828.674683,806.755493 
	C828.781067,804.218262 829.782593,802.830200 832.118225,803.785156 
	C833.749695,804.452148 834.168152,806.130371 833.078674,807.498718 
	C831.629211,809.319214 829.999023,809.162720 828.674683,806.755493 
z"/>
</svg>